<svg width="35" height="35" viewBox="0 0 35 35" fill="none" xmlns="http://www.w3.org/2000/svg">
<path d="M17.5 0C7.84 0 0 7.84 0 17.5C0 27.16 7.84 35 17.5 35C27.16 35 35 27.16 35 17.5C35 7.84 27.16 0 17.5 0ZM26.6875 18.9175C26.6875 19.215 26.67 19.495 26.635 19.775C26.3725 22.8725 24.535 24.4125 21.175 24.4125H20.72C20.44 24.4125 20.16 24.5525 19.985 24.78L18.6025 26.6175C17.99 27.44 17.01 27.44 16.3975 26.6175L15.015 24.78C14.8575 24.5875 14.525 24.4125 14.28 24.4125H13.825C10.1675 24.4125 8.3125 23.5025 8.3125 18.9V14.2975C8.3125 10.9375 9.87 9.1 12.95 8.8375C13.23 8.82 13.5275 8.82 13.825 8.82H21.175C24.8325 8.82 26.6875 10.6575 26.6875 14.3325V18.9175Z" fill="#292D32"/>
</svg>

